<svg width="66" height="72" viewBox="0 0 66 72" fill="none" xmlns="http://www.w3.org/2000/svg">
<path d="M66 50.4V3.6C66 1.35 64.5857 0 62.2286 0H14.1429C6.12857 0 0 5.85 0 13.5V58.5C0 66.15 6.12857 72 14.1429 72H62.2286C64.1143 72 66 70.65 66 68.4V66.15C66 65.25 65.5286 64.35 64.5857 63.45C64.1143 61.2 64.1143 54.9 64.5857 53.1C65.5286 52.65 66 51.75 66 50.4ZM21.2143 23.625C21.2143 23.3266 21.3385 23.0405 21.5595 22.8295C21.7805 22.6185 22.0803 22.5 22.3929 22.5H30.6429V14.625C30.6429 14.3266 30.767 14.0405 30.9881 13.8295C31.2091 13.6185 31.5089 13.5 31.8214 13.5H38.8929C39.2054 13.5 39.5052 13.6185 39.7262 13.8295C39.9473 14.0405 40.0714 14.3266 40.0714 14.625V22.5H48.3214C48.634 22.5 48.9338 22.6185 49.1548 22.8295C49.3758 23.0405 49.5 23.3266 49.5 23.625V30.375C49.5 30.6734 49.3758 30.9595 49.1548 31.1705C48.9338 31.3815 48.634 31.5 48.3214 31.5H40.0714V39.375C40.0714 39.6734 39.9473 39.9595 39.7262 40.1705C39.5052 40.3815 39.2054 40.5 38.8929 40.5H31.8214C31.5089 40.5 31.2091 40.3815 30.9881 40.1705C30.767 39.9595 30.6429 39.6734 30.6429 39.375V31.5H22.3929C22.0803 31.5 21.7805 31.3815 21.5595 31.1705C21.3385 30.9595 21.2143 30.6734 21.2143 30.375V23.625ZM56.1 63H14.1429C11.3143 63 9.42857 61.2 9.42857 58.5C9.42857 55.8 11.7857 54 14.1429 54H56.1V63Z" fill="#2A3B92"/>
</svg>
