<svg width="42" height="42" viewBox="0 0 42 42" fill="none" xmlns="http://www.w3.org/2000/svg">
<path d="M33.1653 11.7975C32.9059 11.1246 32.5084 10.5134 31.9984 10.0034C31.4885 9.49345 30.8773 9.09595 30.2043 8.83654C29.2761 8.49339 28.2959 8.31157 27.3063 8.29894C25.6599 8.22334 25.1643 8.20654 21 8.20654C16.8357 8.20654 16.3422 8.22334 14.7 8.29894C13.7104 8.30957 12.7301 8.49072 11.802 8.83444C10.4391 9.35944 9.36604 10.4346 8.84104 11.7954C8.49664 12.7257 8.31604 13.7064 8.30344 14.6934C8.22784 16.3398 8.21313 16.8333 8.21313 20.9997C8.21313 25.1661 8.22784 25.6617 8.30344 27.306C8.31394 28.2951 8.49664 29.2758 8.83894 30.204C9.09846 30.8769 9.496 31.488 10.006 31.998C10.5159 32.508 11.127 32.9055 11.7999 33.165C12.7302 33.5073 13.7109 33.69 14.6979 33.7005C16.3422 33.7761 16.8357 33.7908 21.0021 33.7908C25.1685 33.7908 25.6641 33.7761 27.3084 33.7005C28.2981 33.6891 29.2785 33.5072 30.2064 33.1629C30.8793 32.9034 31.4904 32.5059 32.0004 31.9959C32.5104 31.4859 32.9079 30.8748 33.1674 30.2019C33.5118 29.2758 33.6924 28.2951 33.705 27.3039C33.7806 25.6596 33.7953 25.1661 33.7953 20.9997C33.7953 16.8333 33.7806 16.3398 33.705 14.6955C33.6936 13.7058 33.5118 12.7255 33.1674 11.7975H33.1653ZM21 29.0112C19.948 29.0112 18.9062 28.804 17.9342 28.4014C16.9622 27.9988 16.079 27.4087 15.335 26.6647C14.5911 25.9208 14.001 25.0376 13.5984 24.0656C13.1958 23.0936 12.9885 22.0518 12.9885 20.9997C12.9885 19.9477 13.1958 18.9059 13.5984 17.9339C14.001 16.9619 14.5911 16.0787 15.335 15.3348C16.079 14.5908 16.9622 14.0007 17.9342 13.5981C18.9062 13.1955 19.948 12.9882 21 12.9882C23.1248 12.9882 25.1626 13.8323 26.665 15.3348C28.1675 16.8372 29.0115 18.875 29.0115 20.9997C29.0115 23.1245 28.1675 25.1623 26.665 26.6647C25.1626 28.1672 23.1248 29.0112 21 29.0112ZM29.3286 14.5422C28.843 14.526 28.3826 14.3216 28.0448 13.9723C27.707 13.623 27.5181 13.156 27.5181 12.6701C27.5181 12.1841 27.707 11.7172 28.0448 11.3679C28.3826 11.0186 28.843 10.8142 29.3286 10.7979H29.3307C29.8165 10.8128 30.2775 11.0158 30.6163 11.3642C30.9551 11.7126 31.1453 12.179 31.1467 12.665C31.1481 13.151 30.9605 13.6185 30.6236 13.9688C30.2867 14.319 29.8269 14.5247 29.3412 14.5422H29.3286Z" fill="white"/>
<path d="M21 15.7981C19.9712 15.7981 18.9655 16.1032 18.1101 16.6747C17.2547 17.2463 16.588 18.0587 16.1943 19.0092C15.8006 19.9597 15.6976 21.0056 15.8983 22.0146C16.099 23.0236 16.5944 23.9505 17.3219 24.678C18.0494 25.4054 18.9762 25.9008 19.9852 26.1015C20.9943 26.3023 22.0402 26.1992 22.9906 25.8055C23.9411 25.4118 24.7535 24.7451 25.3251 23.8897C25.8967 23.0343 26.2017 22.0286 26.2017 20.9998C26.2017 19.6206 25.654 18.2978 24.6789 17.3224C23.7039 16.3469 22.3814 15.7987 21.0021 15.7981H21Z" fill="white"/>
<path d="M41.853 10.647C41.8341 9.02332 41.5358 7.41501 40.971 5.8926C40.5602 4.77952 39.905 3.77273 39.0537 2.9463C38.2274 2.09482 37.2206 1.43963 36.1074 1.029C34.5839 0.465471 32.9751 0.167155 31.3509 0.147C28.6482 0.0293999 27.8397 0 21 0C14.1645 0 13.3518 0.0251999 10.6512 0.147C9.0258 0.168 7.4172 0.4641 5.8947 1.029C4.7817 1.4385 3.7737 2.0937 2.9484 2.9463C2.09858 3.77395 1.44364 4.78039 1.0311 5.8926C0.467651 7.4161 0.169338 9.02487 0.1491 10.6491C0.0294002 13.3518 0 14.1624 0 21.0021C0 27.8418 0.0252002 28.6524 0.1491 31.353C0.1701 32.9763 0.4662 34.587 1.0311 36.1095C1.4406 37.2225 2.0958 38.2305 2.9463 39.0537C3.77323 39.9044 4.77988 40.5595 5.8926 40.971C7.41565 41.5361 9.0247 41.8345 10.6491 41.853C13.3497 41.9769 14.1624 42 21 42C27.8397 42 28.6503 41.9748 31.353 41.853C32.9767 41.8342 34.585 41.5359 36.1074 40.971C37.2125 40.545 38.2162 39.8924 39.0538 39.0551C39.8915 38.2178 40.5446 37.2144 40.971 36.1095C41.5338 34.5849 41.832 32.9763 41.853 31.353C41.9748 28.6503 42 27.8376 42 21C42 14.1603 41.9748 13.3518 41.853 10.647ZM36.5085 27.4323C36.4837 28.7271 36.2387 30.0081 35.784 31.2207C35.383 32.2571 34.77 33.1984 33.9842 33.9842C33.1984 34.77 32.2571 35.383 31.2207 35.784C30.0086 36.2378 28.7284 36.4828 27.4344 36.5085C25.7691 36.5862 25.2378 36.603 21 36.603C16.7622 36.603 16.233 36.5841 14.5677 36.5085C13.2737 36.4827 11.9935 36.2377 10.7814 35.784C9.7445 35.3834 8.80276 34.7705 8.01657 33.9847C7.23037 33.1989 6.61708 32.2574 6.216 31.2207C5.76192 30.008 5.51694 28.727 5.4915 27.4323C5.418 25.7691 5.397 25.2378 5.397 21C5.397 16.7622 5.4159 16.2309 5.4915 14.5677C5.51694 13.273 5.76192 11.992 6.216 10.7793C6.61696 9.74252 7.23022 8.801 8.01643 8.01516C8.80264 7.22931 9.74444 6.61648 10.7814 6.216C11.9935 5.76215 13.2737 5.51718 14.5677 5.4915C16.233 5.4138 16.7664 5.397 21.0021 5.397C25.2378 5.397 25.7691 5.4159 27.4344 5.4915C28.7291 5.51662 30.0102 5.76161 31.2228 6.216C32.2589 6.6172 33.1997 7.23033 33.9851 8.01612C34.7706 8.80191 35.3833 9.74306 35.784 10.7793C36.2397 11.9931 36.4833 13.272 36.5085 14.5677C36.5841 16.2309 36.603 16.7622 36.603 21C36.603 25.2378 36.5841 25.767 36.5085 27.4323V27.4323Z" fill="white"/>
</svg>
