<svg width="42" height="42" viewBox="0 0 42 42" fill="none" xmlns="http://www.w3.org/2000/svg">
<rect x="4" y="4" width="34" height="34" fill="white"/>
<path d="M31.5 14.5888C30.7272 14.9248 29.8977 15.1558 29.0262 15.2566C29.9166 14.7316 30.597 13.9 30.9204 12.9109C30.0719 13.4054 29.1461 13.7533 28.182 13.9399C27.7764 13.5148 27.2885 13.1768 26.7481 12.9464C26.2076 12.7161 25.6258 12.5983 25.0383 12.6001C22.659 12.6001 20.7312 14.5006 20.7312 16.8421C20.7312 17.1739 20.769 17.4973 20.8425 17.8081C19.1359 17.7271 17.4649 17.2912 15.9362 16.5283C14.4074 15.7653 13.0545 14.6921 11.9637 13.3771C11.5806 14.022 11.3789 14.7585 11.3799 15.5086C11.3799 16.9786 12.1422 18.2806 13.2972 19.0387C12.6135 19.0173 11.9445 18.8353 11.3442 18.5074V18.5599C11.3507 19.5458 11.6987 20.4989 12.3289 21.2571C12.9592 22.0152 13.8327 22.5314 14.8008 22.7179C14.1653 22.886 13.5003 22.9104 12.8541 22.7893C13.1358 23.6374 13.6745 24.3768 14.3955 24.9048C15.1166 25.4328 15.9841 25.7232 16.8777 25.7356C15.3446 26.917 13.4623 27.5553 11.5269 27.55C11.1804 27.55 10.8381 27.529 10.5 27.4912C12.475 28.7413 14.765 29.4034 17.1024 29.4001C25.0278 29.4001 29.3601 22.9363 29.3601 17.3293L29.3454 16.7791C30.1902 16.1854 30.9202 15.4433 31.5 14.5888Z" fill="#003A78"/>
<path d="M8.4 4.2C7.28609 4.2 6.2178 4.6425 5.43015 5.43015C4.6425 6.2178 4.2 7.28609 4.2 8.4V33.6C4.2 34.7139 4.6425 35.7822 5.43015 36.5698C6.2178 37.3575 7.28609 37.8 8.4 37.8H33.6C34.7139 37.8 35.7822 37.3575 36.5698 36.5698C37.3575 35.7822 37.8 34.7139 37.8 33.6V8.4C37.8 7.28609 37.3575 6.2178 36.5698 5.43015C35.7822 4.6425 34.7139 4.2 33.6 4.2H8.4ZM8.4 0H33.6C35.8278 0 37.9644 0.884998 39.5397 2.4603C41.115 4.03561 42 6.17218 42 8.4V33.6C42 35.8278 41.115 37.9644 39.5397 39.5397C37.9644 41.115 35.8278 42 33.6 42H8.4C6.17218 42 4.03561 41.115 2.4603 39.5397C0.884998 37.9644 0 35.8278 0 33.6V8.4C0 6.17218 0.884998 4.03561 2.4603 2.4603C4.03561 0.884998 6.17218 0 8.4 0V0Z" fill="white"/>
</svg>
