<svg width="42" height="42" viewBox="0 0 42 42" fill="none" xmlns="http://www.w3.org/2000/svg">
<path d="M17.5125 15.9469L26.4375 21.0188L17.5125 26.0906V15.9469ZM42 4.5V37.5C42 39.9844 39.9844 42 37.5 42H4.5C2.01563 42 0 39.9844 0 37.5V4.5C0 2.01563 2.01563 0 4.5 0H37.5C39.9844 0 42 2.01563 42 4.5ZM38.0625 21.0281C38.0625 21.0281 38.0625 15.4406 37.35 12.7594C36.9563 11.2781 35.8031 10.1156 34.3313 9.72187C31.6781 9 21 9 21 9C21 9 10.3219 9 7.66875 9.72187C6.19688 10.1156 5.04375 11.2781 4.65 12.7594C3.9375 15.4313 3.9375 21.0281 3.9375 21.0281C3.9375 21.0281 3.9375 26.6156 4.65 29.2969C5.04375 30.7781 6.19688 31.8938 7.66875 32.2875C10.3219 33 21 33 21 33C21 33 31.6781 33 34.3313 32.2781C35.8031 31.8844 36.9563 30.7688 37.35 29.2875C38.0625 26.6156 38.0625 21.0281 38.0625 21.0281V21.0281Z" fill="white"/>
</svg>
